<?xml version="1.0" encoding="UTF-8"?>
<svg width="166px" height="35px" viewBox="0 0 166 35" version="1.1" xmlns="http://www.w3.org/2000/svg" xmlns:xlink="http://www.w3.org/1999/xlink">
    <!-- Generator: Sketch 49.1 (51147) - http://www.bohemiancoding.com/sketch -->
    <title>ventes</title>
    <desc>Created with Sketch.</desc>
    <defs></defs>
    <g id="Page-1" stroke="none" stroke-width="1" fill="none" fill-rule="evenodd">
        <g id="Touch-Bar" transform="translate(-460.000000, -95.000000)" fill="#000000">
            <path d="M460,103.954101 L472.085201,103.954101 L472.085201,106.16629 L471.346368,106.16629 C470.343661,106.16629 469.719177,106.201404 469.472898,106.271633 C469.121071,106.376976 468.857204,106.543766 468.681291,106.772009 C468.505377,107.000252 468.417422,107.272384 468.417422,107.588412 C468.417422,108.027341 468.610924,108.738395 468.997934,109.721595 L475.014147,124.706546 L480.845653,109.721595 C481.215071,108.755952 481.399777,108.053677 481.399777,107.614748 C481.399777,107.158262 481.223867,106.802735 480.872039,106.548157 C480.520212,106.293578 479.886933,106.16629 478.972182,106.16629 L477.705611,106.16629 L477.705611,103.954101 L488.128437,103.954101 L488.128437,106.16629 C487.407192,106.183848 486.804697,106.297967 486.320935,106.508653 C485.837172,106.719339 485.458964,106.991471 485.186298,107.325056 C484.913632,107.658642 484.504639,108.457481 483.959307,109.721595 L475.541885,129.367946 L472.375457,129.367946 L463.905261,109.27389 C463.553434,108.448704 463.16643,107.772764 462.744238,107.24605 C462.462776,106.912464 462.088965,106.649111 461.622794,106.455982 C461.156624,106.262853 460.615697,106.16629 460,106.16629 L460,103.954101 Z M512.641869,122.573363 L514.330631,123.942814 C513.046462,125.470286 511.801892,126.681711 510.596884,127.577126 C509.391877,128.47254 508.252853,129.100199 507.179781,129.46012 C506.106708,129.820042 504.848945,130 503.406454,130 C500.820524,130 498.621638,129.473293 496.809728,128.419865 C494.733948,127.208421 493.141954,125.628302 492.033699,123.679458 C490.925444,121.730615 490.371324,119.430663 490.371324,116.779533 C490.371324,114.005504 490.907852,111.635325 491.980925,109.668924 C493.053998,107.702523 494.553638,106.153128 496.479892,105.020692 C498.406145,103.888256 500.635816,103.322047 503.168972,103.322047 C505.051247,103.322047 506.687218,103.616124 508.076935,104.204289 C509.466652,104.792453 510.645256,105.679076 511.61278,106.864184 C512.580305,108.049291 513.283948,109.40556 513.723732,110.933032 C513.970011,111.828447 514.11074,112.987201 514.145923,114.40933 L495.490383,114.40933 C495.437609,115.269631 495.411222,115.910457 495.411222,116.331828 C495.411222,118.544029 495.798226,120.514789 496.572246,122.244169 C497.346266,123.973548 498.370947,125.246422 499.64632,126.062829 C500.921693,126.879237 502.368561,127.287434 503.986966,127.287434 C505.359091,127.287434 506.687219,126.967021 507.971388,126.326185 C509.255557,125.685349 510.812368,124.434421 512.641869,122.573363 Z M509.264346,111.933785 C509.000476,110.318527 508.626665,109.124659 508.142903,108.352144 C507.65914,107.57963 506.973088,106.965139 506.084724,106.508653 C505.196361,106.052167 504.198066,105.823928 503.089811,105.823928 C501.981555,105.823928 500.943681,106.052167 499.976156,106.508653 C499.008632,106.965139 498.203839,107.597187 497.561755,108.404816 C496.91967,109.212444 496.361153,110.388756 495.886187,111.933785 L509.264346,111.933785 Z M518.183119,107.746426 L518.183119,105.534236 C519.748749,105.358665 520.918557,105.147982 521.692577,104.902182 C522.466596,104.656382 523.583631,104.129675 525.043713,103.322047 L526.94357,103.322047 L526.94357,108.325809 C529.265629,106.376965 531.249025,105.05581 532.893817,104.362302 C534.538608,103.668795 536.205364,103.322047 537.894134,103.322047 C539.336626,103.322047 540.61198,103.563454 541.720235,104.046275 C542.828491,104.529097 543.730034,105.183091 544.424893,106.008277 C545.119751,106.833463 545.581517,107.772756 545.810205,108.826185 C545.950936,109.4758 546.0213,110.458985 546.0213,111.775771 L546.0213,123.363431 C546.0213,124.750446 546.122449,125.641458 546.32475,126.036494 C546.52705,126.431529 546.848088,126.716829 547.287872,126.8924 C547.727655,127.067972 548.809508,127.155756 550.53346,127.155756 L550.53346,129.367946 L536.944206,129.367946 L536.944206,127.155756 L537.683039,127.155756 C538.949617,127.155756 539.81158,127.041636 540.268956,126.813394 C540.726331,126.585151 541.056164,126.25157 541.258464,125.812641 C541.460765,125.373712 541.561914,124.478311 541.561914,123.126411 L541.561914,113.434913 C541.561914,111.433399 541.399196,110.046405 541.073756,109.27389 C540.748316,108.501376 540.194197,107.873717 539.411381,107.390895 C538.628566,106.908074 537.639067,106.666667 536.442855,106.666667 C535.017955,106.666667 533.496326,107.030972 531.877921,107.759594 C530.259516,108.488215 528.693909,109.563575 527.181052,110.985704 L527.181052,123.126411 C527.181052,124.495868 527.282201,125.408826 527.484502,125.865312 C527.686802,126.321798 528.016635,126.664157 528.47401,126.8924 C528.790655,127.067972 529.635027,127.155756 531.007153,127.155756 L531.772373,127.155756 L531.772373,129.367946 L518.183119,129.367946 L518.183119,127.155756 L518.842791,127.155756 C520.144552,127.155756 521.032902,127.046026 521.507868,126.826561 C521.982835,126.607097 522.317066,126.216456 522.510571,125.654628 C522.616119,125.373713 522.668892,124.408084 522.668892,122.757713 L522.668892,107.746426 L518.183119,107.746426 Z M560.771578,95 L562.645048,95 L562.645048,103.954101 L570.481958,103.954101 L570.481958,106.58766 L562.645048,106.58766 L562.645048,122.468021 C562.645048,123.819921 562.763788,124.78555 563.001272,125.364936 C563.238755,125.944322 563.64335,126.418358 564.215069,126.787058 C564.786788,127.155758 565.424465,127.340105 566.12812,127.340105 C567.799298,127.340105 569.646363,126.593938 571.669369,125.10158 L571.669369,127.656132 C569.364901,129.218719 567.034082,130 564.67684,130 C563.339897,130 562.130509,129.701533 561.048641,129.10459 C559.966773,128.507647 559.227947,127.805371 558.832141,126.997743 C558.436336,126.190114 558.238436,124.785563 558.238436,122.784048 L558.238436,106.58766 L553.620728,106.58766 L553.620728,104.37547 C555.098402,104.041884 556.290198,103.523956 557.196153,102.82167 C558.102108,102.119384 558.836536,101.206426 559.39946,100.082769 C559.962383,98.9591115 560.419751,97.2648721 560.771578,95 Z M596.948021,122.573363 L598.636783,123.942814 C597.352614,125.470286 596.108044,126.681711 594.903036,127.577126 C593.698028,128.47254 592.559005,129.100199 591.485932,129.46012 C590.41286,129.820042 589.155096,130 587.712605,130 C585.126676,130 582.927789,129.473293 581.11588,128.419865 C579.0401,127.208421 577.448106,125.628302 576.339851,123.679458 C575.231595,121.730615 574.677476,119.430663 574.677476,116.779533 C574.677476,114.005504 575.214004,111.635325 576.287077,109.668924 C577.360149,107.702523 578.85979,106.153128 580.786044,105.020692 C582.712297,103.888256 584.941968,103.322047 587.475123,103.322047 C589.357398,103.322047 590.99337,103.616124 592.383087,104.204289 C593.772804,104.792453 594.951407,105.679076 595.918932,106.864184 C596.886456,108.049291 597.5901,109.40556 598.029884,110.933032 C598.276163,111.828447 598.416892,112.987201 598.452074,114.40933 L579.796535,114.40933 C579.743761,115.269631 579.717374,115.910457 579.717374,116.331828 C579.717374,118.544029 580.104378,120.514789 580.878398,122.244169 C581.652417,123.973548 582.677098,125.246422 583.952472,126.062829 C585.227845,126.879237 586.674712,127.287434 588.293117,127.287434 C589.665243,127.287434 590.99337,126.967021 592.277539,126.326185 C593.561708,125.685349 595.11852,124.434421 596.948021,122.573363 Z M593.570498,111.933785 C593.306627,110.318527 592.932816,109.124659 592.449054,108.352144 C591.965292,107.57963 591.279239,106.965139 590.390876,106.508653 C589.502512,106.052167 588.504218,105.823928 587.395962,105.823928 C586.287707,105.823928 585.249833,106.052167 584.282308,106.508653 C583.314783,106.965139 582.509991,107.597187 581.867907,108.404816 C581.225822,109.212444 580.667305,110.388756 580.192338,111.933785 L593.570498,111.933785 Z M620.326816,103.954101 L622.173899,103.954101 L624.54872,112.012792 L622.173899,112.802859 C621.223966,110.64333 619.891441,108.944701 618.176284,107.706922 C616.461126,106.469144 614.724006,105.850263 612.96487,105.850263 C611.610336,105.850263 610.510893,106.179455 609.666508,106.837848 C608.822123,107.496241 608.399936,108.255576 608.399936,109.115877 C608.399936,109.923505 608.707781,110.617002 609.323478,111.196388 C609.921584,111.793331 611.267303,112.469271 613.360674,113.224229 L618.50612,115.041384 C621.408694,116.077256 623.387691,117.18334 624.443173,118.359669 C625.481063,119.553555 626,120.905435 626,122.41535 C626,123.697022 625.612996,124.930393 624.838976,126.1155 C624.064957,127.300608 622.943525,128.24429 621.474646,128.946576 C620.005768,129.648862 618.321421,130 616.421555,130 C613.466207,130 610.93309,129.15727 608.822127,127.471783 L608.268002,129.367946 L606.394532,129.367946 L603.096169,120.756208 L605.497377,119.808126 C607.098191,122.336356 608.611025,124.127158 610.035924,125.180587 C612.023748,126.672945 614.169861,127.419112 616.474328,127.419112 C618.004776,127.419112 619.262539,127.010915 620.247655,126.194507 C621.232771,125.3781 621.725322,124.469531 621.725322,123.468774 C621.725322,122.643588 621.417478,121.888641 620.80178,121.203913 C620.168492,120.536741 618.954706,119.887136 617.160388,119.255079 L611.065014,117.042889 C608.443901,116.094803 606.623223,115.058947 605.602925,113.93529 C604.582626,112.811632 604.072485,111.521201 604.072485,110.063958 C604.072485,108.290686 604.903664,106.723734 606.566047,105.363055 C608.22843,104.002376 610.343759,103.322047 612.912097,103.322047 C614.24904,103.322047 615.445234,103.493226 616.500715,103.835591 C617.556197,104.177955 618.594071,104.744165 619.61437,105.534236 L620.326816,103.954101 Z" id="ventes"></path>
        </g>
    </g>
</svg>